<?xml version="1.0"?>
<svg xmlns="http://www.w3.org/2000/svg" width="512" height="512" viewBox="0 0 512 512">
<path fill="#FFFFFF" d="M413.654,170.368c-8.683-25.699-20.563-48.063-35.643-67.108c-15.077-19.034-32.824-34.068-53.229-45.118c-20.41-11.039-42.191-16.563-65.337-16.563c-23.153,0-44.854,5.523-65.108,16.563c-20.261,11.05-37.926,26.084-52.998,45.118c-15.079,19.045-26.96,41.409-35.643,67.108c-8.678,25.702-13.022,53.215-13.022,82.529c0,28.939,4.345,56.169,13.022,81.674c8.683,25.51,20.563,47.787,35.643,66.819c15.072,19.042,32.737,34.087,52.998,45.124c20.255,11.048,41.955,16.557,65.108,16.557c23.146,0,44.927-5.509,65.337-16.557c20.404-11.037,38.151-26.082,53.229-45.124c15.079-19.032,26.96-41.31,35.643-66.819c8.678-25.505,13.021-52.734,13.021-81.674C426.675,223.583,422.332,196.07,413.654,170.368z M152.989,193.724c6.088-18.591,14.389-34.805,24.901-48.652c10.509-13.843,22.765-24.746,36.779-32.716c14.009-7.961,28.933-11.948,44.776-11.948c15.836,0,30.841,3.987,45.004,11.948c14.164,7.97,26.501,18.873,37.009,32.716c10.51,13.848,18.808,30.062,24.903,48.652c6.093,18.588,9.141,40.851,9.141,61.717c0,2.025-0.054,6.904-0.11,8.574H143.959c-0.058-1.67-0.111-6.549-0.111-8.574C143.848,234.574,146.891,212.312,152.989,193.724z M341.459,359.869c-10.508,13.656-22.845,24.474-37.009,32.43c-14.163,7.965-29.168,11.952-45.004,11.952c-15.844,0-30.768-3.987-44.776-11.952c-14.015-7.956-26.271-18.773-36.779-32.43c-10.513-13.654-18.813-26.745-24.901-45.147c-0.389-1.171-0.625-0.677-0.989-2.347l215,0.063c-0.363,1.67-0.25,1.113-0.638,2.284C360.267,333.124,351.969,346.215,341.459,359.869z"></path>
</svg>